# xmcd
#
# Track frame offsets:
#	150
#	14303
#	31432
#	46780
#	61520
#	78388
#	90025
#	106170
#	121605
#	138181
#	156376
#	173792
#
# Disc length: 2517 seconds
#
# Revision: 2
# Processed by: cddbd v1.5.2PL0 Copyright (c) Steve Scherf et al.
# Submitted via: EZCDAudioConverter 4.0.4.2
#
DISCID=7c09d30c
DTITLE=Bucky Covington - Good Guys
DYEAR=2012
DGENRE=Country
TTITLE0=I Wanna Be That Feeling
TTITLE1=I'm Alright
TTITLE2=Hold A Woman
TTITLE3=Drinking Side Of Country Featuring Shooter Jennings
TTITLE4=Only Got So Much Time
TTITLE5=Mama Must Be Prayin'
TTITLE6=Sail On
TTITLE7=I Always Said You'd Be Back
TTITLE8=Mexicoma
TTITLE9=I Want My Life Back
TTITLE10=Gotta Be Somebody
TTITLE11=A Father's Love ( The Only Way He Knew How )
EXTD=
EXTT0=
EXTT1=
EXTT2=
EXTT3=
EXTT4=
EXTT5=
EXTT6=
EXTT7=
EXTT8=
EXTT9=
EXTT10=
EXTT11=
PLAYORDER=
